HIERARCHY
ROOT hip
{
	OFFSET 0.000000 0.000000 0.000000 
	CHANNELS 6 Xposition Yposition Zposition Xrotation Zrotation Yrotation
	JOINT abdomen
	{
		OFFSET 0.000000 3.402643 0.000000 
		CHANNELS 3 Xrotation Zrotation Yrotation
		JOINT chest
		{
			OFFSET 0.000000 8.438565 -0.680529 
			CHANNELS 3 Xrotation Zrotation Yrotation
			JOINT neck
			{
				OFFSET 0.000000 10.207942 -0.272212 
				CHANNELS 3 Xrotation Zrotation Yrotation
				JOINT head
				{
					OFFSET 0.000000 3.130431 0.000000 
					CHANNELS 3 Xrotation Zrotation Yrotation
					End Site
					{
						OFFSET 0.000000 3.130435 0.000000 
					}
				}
			}
			JOINT lCollar
			{
				OFFSET 3.470700 6.669187 -0.816635 
				CHANNELS 3 Yrotation Zrotation Xrotation
				JOINT lShldr
				{
					OFFSET 3.198488 0.000000 0.000000 
					CHANNELS 3 Zrotation Yrotation Xrotation
					JOINT lForeArm
					{
						OFFSET 10.139888 0.000000 0.000000 
						CHANNELS 3 Yrotation Zrotation Xrotation
						JOINT lHand
						{
							OFFSET 8.370511 0.000000 0.000000 
							CHANNELS 3 Zrotation Yrotation Xrotation
							End Site
							{
								OFFSET 4.083176 0.000000 0.000000 
							}
						}
					}
				}
			}
			JOINT rCollar
			{
				OFFSET -3.470700 6.669187 -0.816635 
				CHANNELS 3 Yrotation Zrotation Xrotation
				JOINT rShldr
				{
					OFFSET -3.198488 0.000000 0.000000 
					CHANNELS 3 Zrotation Yrotation Xrotation
					JOINT rForeArm
					{
						OFFSET -10.139888 0.000000 0.000000 
						CHANNELS 3 Yrotation Zrotation Xrotation
						JOINT rHand
						{
							OFFSET -8.370511 0.000000 0.000000 
							CHANNELS 3 Zrotation Yrotation Xrotation
							End Site
							{
								OFFSET -4.083176 0.000000 0.000000 
							}
						}
					}
				}
			}
		}
	}
	JOINT lThigh
	{
		OFFSET 5.308129 -1.633274 1.361059 
		CHANNELS 3 Xrotation Zrotation Yrotation
		JOINT lShin
		{
			OFFSET -2.041588 -20.007561 0.000000 
			CHANNELS 3 Xrotation Zrotation Yrotation
			JOINT lFoot
			{
				OFFSET 0.000000 -19.190928 -1.224953 
				CHANNELS 3 Xrotation Yrotation Zrotation
				End Site
				{
					OFFSET 0.000000 -2.449906 4.627600 
				}
			}
		}
	}
	JOINT rThigh
	{
		OFFSET -5.308129 -1.633274 1.361059 
		CHANNELS 3 Xrotation Zrotation Yrotation
		JOINT rShin
		{
			OFFSET 2.041588 -20.007561 0.000000 
			CHANNELS 3 Xrotation Zrotation Yrotation
			JOINT rFoot
			{
				OFFSET 0.000000 -19.190928 -1.224953 
				CHANNELS 3 Xrotation Yrotation Zrotation
				End Site
				{
					OFFSET 0.000000 -2.449906 4.627600 
				}
			}
		}
	}
}
MOTION
Frames: 8
Frame Time: 0.033333
-55.592533 47.016788 84.329048 7.158813 0.746092 -149.271408 0.000000 0.000000 0.000000 19.222794 1.152662 -1.951520 13.182878 3.819816 -20.676956 12.900514 13.956344 -15.463387 -8.000635 -0.379058 18.091560 -67.199898 -34.005512 12.422589 -56.769135 -4.750379 -1.332003 4.616309 16.233158 -3.156145 2.105313 7.976229 17.791359 11.890329 54.018440 -33.689018 43.370110 6.014637 -44.154541 -21.097521 -11.174751 -2.156578 -20.785152 17.865725 2.869665 41.747360 -2.977442 -3.877387 -5.575716 0.326108 -6.656682 -3.066333 -18.819885 -6.771651 14.104536 3.923719 -0.519208 -1.547591 -0.176087 11.736124 
-55.191597 47.097324 84.524986 6.845711 0.087264 -149.501236 0.000000 0.000000 0.000000 20.851141 1.843556 -0.147316 15.036921 3.521537 -19.347206 10.251672 16.282681 -17.320358 -6.050934 -0.660264 19.615185 -66.619514 -32.708832 9.228525 -57.134800 -3.997602 0.099462 2.913099 17.092339 -3.338898 3.830916 6.943993 19.238373 11.999218 51.906231 -40.306786 42.356693 5.756132 -40.078163 -17.536678 -12.703144 -2.190205 -21.892956 16.258593 2.719228 41.761665 -2.977551 -3.752771 -3.087838 0.154059 -5.919373 -4.081981 -19.233969 -6.664899 14.974464 3.904624 -0.292076 -1.458329 -0.159829 11.068313 
-54.962692 46.962929 84.810143 6.982434 0.106625 -150.582626 0.000000 0.000000 0.000000 22.860661 2.789945 2.064337 16.868433 3.828161 -18.129709 6.818141 16.818462 -19.069099 -4.430015 0.379467 21.491966 -66.210274 -31.805704 6.484575 -57.693890 -3.360025 -0.338476 2.385051 15.551724 -3.407587 4.007170 6.929671 21.073492 7.564534 51.102749 -44.141510 42.219433 5.655191 -40.510796 -20.983885 -12.331680 -1.970837 -22.977528 14.188824 2.627112 42.168224 -2.951550 -3.666226 -3.015595 0.110675 -3.984523 -6.054453 -19.117765 -6.144925 17.059940 3.867084 0.001612 -1.605987 -0.155311 10.571827 
-54.877617 46.821983 85.194717 5.469604 1.011002 -152.110077 0.000000 0.000000 0.000000 23.650743 3.131484 3.108840 17.464537 4.197577 -17.395763 5.760002 16.621265 -19.329119 -4.052774 0.029647 22.187078 -63.946499 -29.146070 1.651116 -58.335766 -2.752135 -0.451430 1.894676 13.240841 -3.476542 3.578804 5.994009 21.846277 4.824724 52.565193 -46.185863 42.020798 5.698404 -41.082230 -24.293669 -12.397182 -1.680649 -24.125126 12.877684 2.486373 40.923878 -3.016535 -3.531646 -4.951095 0.124001 -3.015462 -9.656629 -19.097126 -5.356408 18.291702 3.826136 0.281298 -1.232859 -0.108167 10.106179 
-54.915878 46.775925 85.416069 4.767617 1.654415 -152.781723 0.000000 0.000000 0.000000 24.785118 3.112646 2.188210 18.161777 4.881969 -17.766636 7.270937 16.255600 -17.891369 -3.496986 -0.373348 23.197447 -61.518162 -25.548712 -2.416918 -58.166771 -2.445885 -1.824878 4.220823 11.626945 -3.301451 2.111397 5.202832 22.980724 3.909463 57.030548 -47.760921 39.505444 5.835449 -39.463455 -26.161451 -11.714417 -1.682902 -24.850956 13.279865 2.333282 40.903255 -3.016452 -3.559263 -5.621336 0.162335 -3.270864 -11.227033 -18.879742 -4.978237 18.283613 3.836280 0.457240 -0.716840 -0.062225 9.688672 
-54.928963 46.810658 85.774597 5.180020 2.314737 -152.075150 0.000000 0.000000 0.000000 26.664726 3.797658 0.352606 19.677332 5.611248 -18.597862 6.026512 15.727056 -16.487619 -3.448173 -0.265445 24.951645 -59.674126 -23.214380 -5.367743 -56.437256 -2.434274 -2.949406 7.587813 12.936425 -2.986482 2.192826 6.348821 24.583569 1.285525 58.591724 -49.088326 36.573387 6.016647 -38.368504 -28.357742 -10.285913 -1.860479 -25.720079 13.572887 2.213897 40.964195 -3.026268 -3.489449 -4.457767 0.107182 -2.700109 -10.143534 -18.332701 -5.068847 16.103149 3.857512 0.699718 0.295574 0.010406 9.538116 
-54.953129 46.839222 86.090591 6.443136 2.775355 -152.489334 0.000000 0.000000 0.000000 29.287527 4.696356 0.481660 21.243513 5.515238 -18.095081 2.641694 15.573747 -16.321516 -3.140508 -1.075165 25.000000 -57.682724 -22.378773 -7.058960 -54.971760 -2.349261 -1.053251 10.184160 15.563445 -2.583080 2.335104 6.655612 25.000000 -1.386161 58.917370 -51.496170 34.290253 6.113478 -37.397507 -29.152002 -9.312240 -2.048019 -25.082720 14.420701 2.285240 40.770885 -3.019825 -3.414971 -4.206571 0.071781 -2.416443 -5.145472 -17.280210 -5.880110 6.703070 4.047426 1.900889 5.025835 0.532474 11.912158 
-55.025360 46.743580 86.507767 6.496029 3.425186 -153.389053 0.000000 0.000000 0.000000 31.007355 5.488476 2.031129 21.421194 5.497193 -17.430395 0.301918 14.182145 -16.803076 -3.377456 -0.299672 25.000000 -57.230183 -23.336712 -7.118852 -53.285622 -2.326979 1.345818 7.834628 18.102802 -2.680186 1.885172 7.211596 25.000000 -4.110279 57.973476 -55.242092 32.898426 6.029837 -35.554596 -28.553549 -8.185323 -2.350013 -25.626591 14.819277 2.176959 41.172333 -3.006556 -3.459068 -4.706023 0.082216 -2.245993 -1.601826 -16.481989 -6.470020 -2.401357 4.069528 1.156530 10.262529 1.296229 14.229360 
